<mxfile host="app.diagrams.net" modified="2022-10-08T09:00:20.607Z" agent="5.0 (Macintosh; Intel Mac OS X 12_1_0) AppleWebKit/537.36 (KHTML, like Gecko) Chrome/89.0.4389.90 Safari/537.36" etag="vvIo8WUrIDVP0YTY99j1" version="20.4.0" type="github">
  <diagram id="0dBSCYIOzl0Dh5r4dUYV" name="Page-1">
    <mxGraphModel dx="1122" dy="669" grid="1" gridSize="10" guides="1" tooltips="1" connect="1" arrows="1" fold="1" page="1" pageScale="1" pageWidth="827" pageHeight="1169" math="0" shadow="0">
      <root>
        <mxCell id="0" />
        <mxCell id="1" parent="0" />
      </root>
    </mxGraphModel>
  </diagram>
</mxfile>
